# Wavefront OBJ file
# Creator: Ultimate Unwrap3D v2.39
# Time: Thu May 15 22:10:55 2008
# num_vertices: 78
# num_vertex_normals: 78
# num_uvs: 372
# num_faces: 110
# num_groups: 1

mtllib d2lod3.mtl

v -25.476749 365.717010 12.217100
v 11.460578 291.326263 -13.860799
v -1.413197 32.353195 -31.139650
v -17.790960 33.355885 -21.943937
v 14.794651 26.340843 -29.207951
v -22.280895 366.106018 14.929100
v -26.536449 29.044296 -4.608630
v 1.505253 0.000000 30.704500
v -15.231045 5.872375 32.793102
v -7.560801 19.944405 28.616600
v 21.744053 312.006012 -15.171799
v 18.443003 312.295502 -0.742200
v 27.823353 281.985016 11.989401
v 33.225601 310.924988 -19.038200
v 39.055374 286.837494 -12.755749
v 13.187439 289.499878 4.704783
v -0.533848 0.260796 38.361603
v 27.729502 265.709503 -19.343048
v -19.707150 368.208008 9.685901
v -24.409084 27.216270 9.710516
v 42.284950 342.169006 -4.608610
v 40.539650 342.217987 -11.124100
v 32.770149 342.545013 -17.639599
v -26.529247 366.181000 8.968201
v 26.257351 341.463989 -15.893800
v 21.489452 341.597992 -11.124100
v 19.744553 341.645996 -4.608610
v 21.489452 341.597992 1.906880
v 26.257351 341.463989 6.676560
v 32.770149 341.281006 8.422390
v 35.406250 341.098999 6.676560
v 40.539650 342.217987 1.906880
v 16.149853 56.137497 5.762031
v -12.127445 16.845169 20.750900
v -20.931850 368.756012 6.113831
v 28.445177 240.837509 -8.966060
v -11.358635 31.429548 19.315538
v 26.858278 0.038628 26.195150
v 14.461351 242.770996 -22.512449
v 3.880904 257.343506 -16.513350
v -1.458746 259.551514 -0.251190
v -1.476048 30.427254 20.994101
v 10.042002 240.492508 12.280063
v -26.088947 367.127991 5.901560
v 18.514051 47.602448 -15.727374
v -22.967747 368.679993 4.444520
v 14.521152 177.564011 -17.241199
v -1.655310 223.419754 -17.407587
v -6.095546 232.074493 -4.501705
v 10.588352 137.828003 9.589701
v 8.964951 0.000000 -37.556202
v -19.661045 367.406006 13.010201
v -2.056147 332.196503 8.051246
v 5.214453 296.153015 9.295085
v -7.578796 338.976990 -5.463299
v 39.270653 0.062805 21.328300
v -33.551449 0.000000 -28.727949
v 40.181652 290.842987 3.002141
v -47.996151 0.000000 -4.608630
v -41.891148 0.000000 13.047900
v -3.165847 218.583496 8.506685
v -23.821449 0.270348 34.532150
v 28.072853 245.761002 4.106230
v -3.712061 305.215759 -12.794250
v 17.471304 157.429001 -0.751118
v 22.389351 35.662094 7.568810
v 3.079727 62.852924 -23.488199
v 47.996151 0.000000 -4.608630
v 41.891052 0.000000 -22.265200
v 18.928551 56.101501 -4.608630
v -13.515396 178.823502 -9.232460
v -12.277645 178.772003 4.639071
v -2.923548 138.365005 10.797451
v 44.945004 285.461365 -0.124209
v -10.585223 316.317261 1.862176
v 18.574778 30.511415 16.057249
v -12.338749 101.840576 -17.428974
v 25.892002 17.056469 17.368851
# num_vertices: 78

vn -0.780698 0.420759 0.462031
vn -0.149030 0.314875 -0.937360
vn -0.146326 0.261897 -0.953938
vn -0.614182 0.273783 -0.740151
vn 0.415739 0.276884 -0.866312
vn -0.266338 0.381167 0.885311
vn -0.941158 0.320912 -0.106000
vn 0.511974 -0.388849 0.765950
vn -0.441569 0.558459 0.702240
vn -0.410238 0.491850 0.767977
vn -0.764984 0.110685 -0.634467
vn -0.972243 0.125351 0.197563
vn 0.290498 0.007445 0.956847
vn 0.226218 0.026848 -0.973707
vn 0.864136 0.036857 -0.501906
vn -0.168690 0.344922 0.923348
vn 0.267419 0.173002 0.947923
vn 0.432448 -0.047719 -0.900395
vn 0.392086 0.908790 0.142722
vn -0.764922 0.226064 0.603150
vn 0.894988 0.437510 0.087075
vn 0.833612 0.462214 -0.302405
vn 0.263327 0.546604 -0.794910
vn -0.876132 0.449914 0.173116
vn -0.445299 0.500714 -0.742290
vn -0.752799 0.503719 -0.423746
vn -0.868331 0.495726 0.016009
vn -0.748865 0.495269 0.440353
vn -0.611807 0.369261 0.699528
vn 0.152791 0.510109 0.846430
vn 0.559323 0.450462 0.695875
vn 0.763475 0.460497 0.452823
vn 0.784807 0.182494 0.592261
vn -0.724841 0.291878 0.624029
vn 0.282984 0.955347 -0.085046
vn 0.937137 -0.219636 -0.271172
vn -0.508766 0.222070 0.831770
vn 0.271797 -0.049692 0.961071
vn -0.044046 0.053919 -0.997573
vn -0.698690 0.084976 -0.710360
vn -0.965208 0.082388 0.248165
vn 0.322171 0.320475 0.890787
vn -0.203949 0.063177 0.976941
vn -0.712556 0.662031 -0.232333
vn 0.761463 0.252003 -0.597218
vn -0.039934 0.772158 -0.634175
vn 0.845577 -0.057801 -0.530715
vn -0.680569 0.118357 -0.723061
vn -0.975406 0.185595 -0.118904
vn 0.622876 -0.047115 0.780900
vn 0.147190 -0.149206 -0.977790
vn 0.275064 0.833041 0.479982
vn 0.865472 0.351311 0.357125
vn 0.044176 0.001940 0.999022
vn 0.553672 0.440882 -0.706449
vn 0.301493 0.094966 0.948727
vn -0.574505 -0.016525 -0.818334
vn 0.917055 0.173411 0.359079
vn -0.997309 0.024709 -0.069027
vn -0.723418 0.333685 0.604418
vn -0.724589 0.126338 0.677502
vn -0.380512 -0.448294 0.808853
vn 0.894840 -0.189385 0.404221
vn -0.579526 0.031726 -0.814336
vn 0.988426 -0.063331 0.137851
vn 0.730316 0.419264 0.539310
vn 0.189482 0.143028 -0.971411
vn 0.964534 -0.047046 0.259731
vn 0.670926 -0.002100 -0.741521
vn 0.963421 0.239847 0.119557
vn -0.969082 0.120076 -0.215551
vn -0.810244 0.110026 0.575672
vn -0.184621 0.045864 0.981739
vn 0.955607 -0.007082 0.294559
vn -0.945078 -0.242487 0.219154
vn 0.325063 0.289888 0.900166
vn -0.520005 0.055601 -0.852351
vn 0.109888 0.274554 0.955272
# num_vertex_normals: 78

vt 0.446017 0.468352
vt 0.400660 0.447179
vt 0.475603 0.444094
vt 0.475603 0.444094
vt 0.400660 0.447179
vt 0.394261 0.402616
vt 0.493399 0.392185
vt 0.493399 0.392185
vt 0.394261 0.402616
vt 0.409556 0.355403
vt 0.494069 0.343877
vt 0.494069 0.343877
vt 0.409556 0.355403
vt 0.455998 0.315992
vt 0.398921 0.094061
vt 0.390148 0.057104
vt 0.414180 0.057163
vt 0.381403 0.019510
vt 0.414180 0.057163
vt 0.390148 0.057104
vt 0.451893 0.009867
vt 0.449138 0.089334
vt 0.440946 0.005278
vt 0.510676 0.674331
vt 0.446720 0.622674
vt 0.467214 0.715771
vt 0.473922 0.823210
vt 0.346852 0.984462
vt 0.322827 0.976543
vt 0.403835 0.869922
vt 0.520664 0.359677
vt 0.508997 0.389029
vt 0.457061 0.418380
vt 0.413525 0.410515
vt 0.381653 0.389029
vt 0.369989 0.359677
vt 0.381653 0.330326
vt 0.413525 0.308839
vt 0.457061 0.300974
vt 0.474683 0.308839
vt 0.508997 0.330326
vt 0.540832 0.106302
vt 0.518405 0.163520
vt 0.529403 0.089750
vt 0.529403 0.089750
vt 0.518405 0.163520
vt 0.449138 0.089334
vt 0.403835 0.869922
vt 0.322827 0.976543
vt 0.319642 0.974972
vt 0.403835 0.869922
vt 0.319642 0.974972
vt 0.330380 0.975130
vt 0.436947 0.838180
vt 0.540832 0.106302
vt 0.529403 0.089750
vt 0.606689 0.006420
vt 0.578684 0.662305
vt 0.690839 0.807154
vt 0.567589 0.678123
vt 0.398921 0.094061
vt 0.414180 0.057163
vt 0.449138 0.089334
vt 0.374493 0.099683
vt 0.464761 0.177837
vt 0.444408 0.090159
vt 0.444408 0.090159
vt 0.464761 0.177837
vt 0.509582 0.075045
vt 0.509582 0.075045
vt 0.464761 0.177837
vt 0.527843 0.140442
vt 0.436947 0.838180
vt 0.330380 0.975130
vt 0.364976 0.980348
vt 0.416413 0.921494
vt 0.557119 0.167806
vt 0.518405 0.163520
vt 0.540832 0.106302
vt 0.381403 0.019510
vt 0.440946 0.005278
vt 0.414180 0.057163
vt 0.518405 0.163520
vt 0.493194 0.384381
vt 0.437553 0.388326
vt 0.449138 0.089334
vt 0.449138 0.089334
vt 0.437553 0.388326
vt 0.398921 0.094061
vt 0.398921 0.094061
vt 0.437553 0.388326
vt 0.345878 0.084980
vt 0.345878 0.084980
vt 0.381252 0.503731
vt 0.308044 0.108270
vt 0.308044 0.108270
vt 0.381252 0.503731
vt 0.397609 0.289045
vt 0.374493 0.099683
vt 0.584152 0.745385
vt 0.616861 0.879273
vt 0.651706 0.812694
vt 0.374493 0.099683
vt 0.397609 0.289045
vt 0.464761 0.177837
vt 0.561502 0.006925
vt 0.606689 0.006420
vt 0.561159 0.055505
vt 0.464761 0.177837
vt 0.510985 0.493150
vt 0.527843 0.140442
vt 0.527843 0.140442
vt 0.510985 0.493150
vt 0.557119 0.167806
vt 0.416413 0.921494
vt 0.364976 0.980348
vt 0.391335 0.988730
vt 0.561159 0.055505
vt 0.606689 0.006420
vt 0.529403 0.089750
vt 0.360109 0.006544
vt 0.440946 0.005278
vt 0.381403 0.019510
vt 0.360109 0.006544
vt 0.451893 0.009867
vt 0.440946 0.005278
vt 0.651706 0.812694
vt 0.660674 0.823742
vt 0.690839 0.807154
vt 0.416413 0.921494
vt 0.391335 0.988730
vt 0.396906 0.991324
vt 0.426974 0.917299
vt 0.492838 0.669752
vt 0.515164 0.803472
vt 0.473922 0.823210
vt 0.449138 0.089334
vt 0.414180 0.057163
vt 0.440946 0.005278
vt 0.660674 0.823742
vt 0.595864 0.805052
vt 0.690839 0.807154
vt 0.652163 0.970813
vt 0.629880 0.963307
vt 0.595864 0.805052
vt 0.660674 0.823742
vt 0.567589 0.678123
vt 0.690839 0.807154
vt 0.595864 0.805052
vt 0.426974 0.917299
vt 0.396906 0.991324
vt 0.386973 0.991178
vt 0.301026 0.004611
vt 0.360109 0.006544
vt 0.381403 0.019510
vt 0.518405 0.163520
vt 0.532996 0.436674
vt 0.493194 0.384381
vt 0.606689 0.006420
vt 0.561502 0.006925
vt 0.451893 0.009867
vt 0.360109 0.006544
vt 0.301026 0.004611
vt 0.204976 0.014246
vt 0.320630 0.006099
vt 0.481223 0.008847
vt 0.601739 0.008809
vt 0.690304 0.015749
vt 0.426974 0.917299
vt 0.386973 0.991178
vt 0.346852 0.984462
vt 0.473922 0.823210
vt 0.437553 0.388326
vt 0.400641 0.502272
vt 0.345878 0.084980
vt 0.345878 0.084980
vt 0.400641 0.502272
vt 0.381252 0.503731
vt 0.601739 0.008809
vt 0.481223 0.008847
vt 0.509582 0.075045
vt 0.492838 0.669752
vt 0.595864 0.805052
vt 0.515164 0.803472
vt 0.397609 0.289045
vt 0.510676 0.674331
vt 0.464761 0.177837
vt 0.464761 0.177837
vt 0.510676 0.674331
vt 0.510985 0.493150
vt 0.345878 0.084980
vt 0.301026 0.004611
vt 0.381403 0.019510
vt 0.390148 0.057104
vt 0.510985 0.493150
vt 0.532996 0.436674
vt 0.557119 0.167806
vt 0.557119 0.167806
vt 0.532996 0.436674
vt 0.518405 0.163520
vt 0.308044 0.108270
vt 0.204976 0.014246
vt 0.301026 0.004611
vt 0.345878 0.084980
vt 0.493194 0.384381
vt 0.492838 0.669752
vt 0.437553 0.388326
vt 0.437553 0.388326
vt 0.492838 0.669752
vt 0.441101 0.609339
vt 0.437553 0.388326
vt 0.441101 0.609339
vt 0.400641 0.502272
vt 0.374493 0.099683
vt 0.320630 0.006099
vt 0.204976 0.014246
vt 0.308044 0.108270
vt 0.444408 0.090159
vt 0.320630 0.006099
vt 0.374493 0.099683
vt 0.397609 0.289045
vt 0.381252 0.503731
vt 0.446720 0.622674
vt 0.397609 0.289045
vt 0.446720 0.622674
vt 0.510676 0.674331
vt 0.444408 0.090159
vt 0.481223 0.008847
vt 0.320630 0.006099
vt 0.509582 0.075045
vt 0.481223 0.008847
vt 0.444408 0.090159
vt 0.527843 0.140442
vt 0.601739 0.008809
vt 0.509582 0.075045
vt 0.557119 0.167806
vt 0.690304 0.015749
vt 0.601739 0.008809
vt 0.527843 0.140442
vt 0.532996 0.436674
vt 0.567589 0.678123
vt 0.493194 0.384381
vt 0.540832 0.106302
vt 0.606689 0.006420
vt 0.690304 0.015749
vt 0.557119 0.167806
vt 0.345878 0.084980
vt 0.390148 0.057104
vt 0.398921 0.094061
vt 0.515164 0.803472
vt 0.426974 0.917299
vt 0.473922 0.823210
vt 0.400641 0.502272
vt 0.441101 0.609339
vt 0.394951 0.651385
vt 0.381252 0.503731
vt 0.381252 0.503731
vt 0.394951 0.651385
vt 0.446720 0.622674
vt 0.451893 0.009867
vt 0.561159 0.055505
vt 0.449138 0.089334
vt 0.510676 0.674331
vt 0.506484 0.806906
vt 0.584152 0.745385
vt 0.595864 0.805052
vt 0.597046 0.965837
vt 0.515164 0.803472
vt 0.561159 0.055505
vt 0.529403 0.089750
vt 0.449138 0.089334
vt 0.510985 0.493150
vt 0.578684 0.662305
vt 0.532996 0.436674
vt 0.532996 0.436674
vt 0.578684 0.662305
vt 0.567589 0.678123
vt 0.664191 0.968423
vt 0.652163 0.970813
vt 0.660674 0.823742
vt 0.651706 0.812694
vt 0.651940 0.965261
vt 0.664191 0.968423
vt 0.660674 0.823742
vt 0.616861 0.879273
vt 0.619912 0.966520
vt 0.651940 0.965261
vt 0.651706 0.812694
vt 0.575390 0.887235
vt 0.597613 0.966633
vt 0.619912 0.966520
vt 0.616861 0.879273
vt 0.578466 0.972219
vt 0.597613 0.966633
vt 0.575390 0.887235
vt 0.436947 0.838180
vt 0.416413 0.921494
vt 0.506484 0.806906
vt 0.560777 0.890882
vt 0.565011 0.970793
vt 0.578466 0.972219
vt 0.575390 0.887235
vt 0.576825 0.967318
vt 0.565011 0.970793
vt 0.560777 0.890882
vt 0.510676 0.674331
vt 0.467214 0.715771
vt 0.436947 0.838180
vt 0.506484 0.806906
vt 0.575390 0.887235
vt 0.616861 0.879273
vt 0.584152 0.745385
vt 0.506484 0.806906
vt 0.597046 0.965837
vt 0.576825 0.967318
vt 0.560777 0.890882
vt 0.515164 0.803472
vt 0.560777 0.890882
vt 0.575390 0.887235
vt 0.506484 0.806906
vt 0.595864 0.805052
vt 0.619269 0.963599
vt 0.597046 0.965837
vt 0.629880 0.963307
vt 0.619269 0.963599
vt 0.595864 0.805052
vt 0.578684 0.662305
vt 0.651706 0.812694
vt 0.690839 0.807154
vt 0.584152 0.745385
vt 0.651706 0.812694
vt 0.578684 0.662305
vt 0.444115 0.720222
vt 0.403835 0.869922
vt 0.436947 0.838180
vt 0.467214 0.715771
vt 0.492838 0.669752
vt 0.473922 0.823210
vt 0.403835 0.869922
vt 0.444115 0.720222
vt 0.597046 0.965837
vt 0.560777 0.890882
vt 0.515164 0.803472
vt 0.510985 0.493150
vt 0.584152 0.745385
vt 0.578684 0.662305
vt 0.510676 0.674331
vt 0.584152 0.745385
vt 0.510985 0.493150
vt 0.451893 0.009867
vt 0.561502 0.006925
vt 0.561159 0.055505
vt 0.394951 0.651385
vt 0.444115 0.720222
vt 0.467214 0.715771
vt 0.446720 0.622674
vt 0.506484 0.806906
vt 0.416413 0.921494
vt 0.426974 0.917299
vt 0.515164 0.803472
vt 0.567589 0.678123
vt 0.595864 0.805052
vt 0.493194 0.384381
vt 0.493194 0.384381
vt 0.595864 0.805052
vt 0.492838 0.669752
vt 0.441101 0.609339
vt 0.444115 0.720222
vt 0.394951 0.651385
vt 0.492838 0.669752
vt 0.444115 0.720222
vt 0.441101 0.609339
# num_uvs: 372

g dtree2
s 1

usemtl dtree2
f 46/1/46 44/2/44 35/3/35 
f 35/4/35 44/5/44 24/6/24 19/7/19 
f 19/8/19 24/9/24 1/10/1 52/11/52 
f 52/12/52 1/13/1 6/14/6 
f 37/15/37 34/16/34 10/17/10 
f 9/18/9 10/19/10 34/20/34 
f 8/21/8 42/22/42 17/23/17 
f 39/24/39 48/25/48 40/26/40 
f 54/27/54 6/28/6 1/29/1 75/30/75 
f 21/31/21 22/32/22 23/33/23 25/34/25 26/35/26 27/36/27 28/37/28 29/38/29 30/39/30 31/40/31 32/41/32 
f 66/42/66 33/43/33 76/44/76 
f 76/45/76 33/46/33 42/47/42 
f 75/48/75 1/49/1 24/50/24 
f 75/51/75 24/52/24 44/53/44 64/54/64 
f 66/55/66 76/56/76 56/57/56 
f 36/58/36 74/59/74 63/60/63 
f 37/61/37 10/62/10 42/63/42 
f 4/64/4 67/65/67 3/66/3 
f 3/67/3 67/68/67 5/69/5 
f 5/70/5 67/71/67 45/72/45 
f 64/73/64 44/74/44 46/75/46 55/76/55 
f 70/77/70 33/78/33 66/79/66 
f 9/80/9 17/81/17 10/82/10 
f 33/83/33 50/84/50 73/85/73 42/86/42 
f 42/87/42 73/88/73 37/89/37 
f 37/90/37 73/91/73 20/92/20 
f 20/93/20 71/94/71 7/95/7 
f 7/96/7 71/97/71 77/98/77 4/99/4 
f 18/100/18 14/101/14 15/102/15 
f 4/103/4 77/104/77 67/105/67 
f 38/106/38 56/107/56 78/108/78 
f 67/109/67 47/110/47 45/111/45 
f 45/112/45 47/113/47 70/114/70 
f 55/115/55 46/116/46 35/117/35 
f 78/118/78 56/119/56 76/120/76 
f 62/121/62 17/122/17 9/123/9 
f 62/124/62 8/125/8 17/126/17 
f 15/127/15 58/128/58 74/129/74 
f 55/130/55 35/131/35 19/132/19 53/133/53 
f 43/134/43 16/135/16 54/136/54 
f 42/137/42 10/138/10 17/139/17 
f 58/140/58 13/141/13 74/142/74 
f 32/143/32 31/144/31 13/145/13 58/146/58 
f 63/147/63 74/148/74 13/149/13 
f 53/150/53 19/151/19 52/152/52 
f 60/153/60 62/154/62 9/155/9 
f 33/156/33 65/157/65 50/158/50 
f 56/159/56 38/160/38 8/161/8 62/162/62 60/163/60 59/164/59 57/165/57 51/166/51 69/167/69 68/168/68 
f 53/169/53 52/170/52 6/171/6 54/172/54 
f 73/173/73 72/174/72 20/175/20 
f 20/176/20 72/177/72 71/178/71 
f 69/179/69 51/180/51 5/181/5 
f 43/182/43 13/183/13 16/184/16 
f 77/185/77 39/186/39 67/187/67 
f 67/188/67 39/189/39 47/190/47 
f 20/191/20 60/192/60 9/193/9 34/194/34 
f 47/195/47 65/196/65 70/197/70 
f 70/198/70 65/199/65 33/200/33 
f 7/201/7 59/202/59 60/203/60 20/204/20 
f 50/205/50 43/206/43 73/207/73 
f 73/208/73 43/209/43 61/210/61 
f 73/211/73 61/212/61 72/213/72 
f 4/214/4 57/215/57 59/216/59 7/217/7 
f 3/218/3 57/219/57 4/220/4 
f 77/221/77 71/222/71 48/223/48 
f 77/224/77 48/225/48 39/226/39 
f 3/227/3 51/228/51 57/229/57 
f 5/230/5 51/231/51 3/232/3 
f 45/233/45 69/234/69 5/235/5 
f 70/236/70 68/237/68 69/238/69 45/239/45 
f 65/240/65 63/241/63 50/242/50 
f 66/243/66 56/244/56 68/245/68 70/246/70 
f 20/247/20 34/248/34 37/249/37 
f 16/250/16 53/251/53 54/252/54 
f 72/253/72 61/254/61 49/255/49 71/256/71 
f 71/257/71 49/258/49 48/259/48 
f 8/260/8 78/261/78 42/262/42 
f 39/263/39 2/264/2 18/265/18 
f 13/266/13 29/267/29 16/268/16 
f 78/269/78 76/270/76 42/271/42 
f 47/272/47 36/273/36 65/274/65 
f 65/275/65 36/276/36 63/277/63 
f 21/278/21 32/279/32 58/280/58 
f 15/281/15 22/282/22 21/283/21 58/284/58 
f 14/285/14 23/286/23 22/287/22 15/288/15 
f 11/289/11 25/290/25 23/291/23 14/292/14 
f 26/293/26 25/294/25 11/295/11 
f 64/296/64 55/297/55 2/298/2 
f 12/299/12 27/300/27 26/301/26 11/302/11 
f 28/303/28 27/304/27 12/305/12 
f 39/306/39 40/307/40 64/308/64 2/309/2 
f 11/310/11 14/311/14 18/312/18 2/313/2 
f 29/314/29 28/315/28 12/316/12 
f 16/317/16 12/318/12 11/319/11 2/320/2 
f 13/321/13 30/322/30 29/323/29 
f 31/324/31 30/325/30 13/326/13 
f 36/327/36 15/328/15 74/329/74 
f 18/330/18 15/331/15 36/332/36 
f 41/333/41 75/334/75 64/335/64 40/336/40 
f 43/337/43 54/338/54 75/339/75 41/340/41 
f 29/341/29 12/342/12 16/343/16 
f 47/344/47 18/345/18 36/346/36 
f 39/347/39 18/348/18 47/349/47 
f 8/350/8 38/351/38 78/352/78 
f 49/353/49 41/354/41 40/355/40 48/356/48 
f 2/357/2 55/358/55 53/359/53 16/360/16 
f 63/361/63 13/362/13 50/363/50 
f 50/364/50 13/365/13 43/366/43 
f 61/367/61 41/368/41 49/369/49 
f 43/370/43 41/371/41 61/372/61 
# num_faces: 110

